Coordinates
version=1
nRows=10
nColumns=22
inDegrees=yes

Units are S.I. units (second, meters, Newtons, ...)
If the header above contains a line with 'inDegrees', this indicates whether rotational values are in degrees (yes) or radians (no).

endheader
time	pelvis_tilt	pelvis_list	pelvis_rotation	pelvis_tx	pelvis_ty	pelvis_tz	hip_flexion_r	hip_adduction_r	hip_rotation_r	knee_angle_r	ankle_angle_r	subtalar_angle_r	hip_flexion_l	hip_adduction_l	hip_rotation_l	knee_angle_l	ankle_angle_l	subtalar_angle_l	lumbar_extension	lumbar_bending	lumbar_rotation
      2.55000000	     -3.06764942	      0.94701708	    176.87216495	     -0.60063801	      1.00401562	     -0.16876530	     -1.02339180	      4.19184367	     -0.21870931	    -27.76688555	     18.99117182	      2.84354921	     17.78651547	     -0.16418613	     -0.60065352	    -16.86717386	      2.57978132	      0.76067418	    -15.89857078	      0.02651829	      5.29099934
      2.56000000	     -2.95429677	      1.00808800	    176.86725305	     -0.59258156	      1.00360038	     -0.16989218	     -0.69819609	      4.40399311	     -0.34015850	    -27.24029281	     19.28678977	      1.82132350	     18.08342832	     -0.31044459	     -0.44486264	    -16.34356410	      2.90933575	      1.29012809	    -16.05388040	      0.11561413	      5.47107246
      2.57000000	     -2.83467244	      1.07949582	    176.86979611	     -0.58454467	      1.00323718	     -0.17099250	     -0.30026171	      4.61068406	     -0.45977412	    -26.83169185	     19.49321722	      0.97391405	     18.36406087	     -0.47178918	     -0.32905075	    -15.79669943	      3.29493720	      1.75564711	    -16.19272960	      0.21519704	      5.63692477
      2.58000000	     -2.71010194	      1.17048778	    176.87881516	     -0.57654637	      1.00291950	     -0.17206625	      0.16142189	      4.82247663	     -0.57141784	    -26.53234874	     19.62355278	      0.30501053	     18.63424012	     -0.66285266	     -0.29346855	    -15.24823360	      3.70062052	      2.13906257	    -16.31349991	      0.33728319	      5.79213810
      2.59000000	     -2.58559816	      1.29180301	    176.89482867	     -0.56863384	      1.00266279	     -0.17312408	      0.65886609	      5.05308936	     -0.67950794	    -26.30503513	     19.68216363	     -0.17474248	     18.90248695	     -0.89952056	     -0.38829339	    -14.73946356	      4.09997063	      2.41772149	    -16.41513996	      0.48971714	      5.93543373
      2.60000000	     -2.45235394	      1.42294857	    176.91219389	     -0.56077188	      1.00244810	     -0.17414051	      1.22863868	      5.27863101	     -0.80377798	    -26.19712110	     19.66006275	     -0.57047651	     19.18235474	     -1.15898971	     -0.61650726	    -14.28351074	      4.42875559	      2.64938776	    -16.49433328	      0.65455411	      6.06024225
      2.61000000	     -2.36764503	      1.59842904	    176.93619071	     -0.55306742	      1.00239604	     -0.17513446	      1.75045816	      5.54005681	     -0.93306656	    -26.11071091	     19.54309992	     -0.76100285	     19.43360189	     -1.48077317	     -1.05493911	    -13.95315183	      4.76269495	      2.73437108	    -16.60537763	      0.86448378	      6.16551324
      2.62000000	     -2.19997074	      1.77653138	    176.96488101	     -0.54544554	      1.00227339	     -0.17605911	      2.41185068	      5.79377705	     -1.11993215	    -26.11913394	     19.38212398	     -1.01915831	     19.81735989	     -1.82128097	     -1.66550428	    -13.78629798	      4.96589007	      2.82495546	    -16.59793415	      1.08340646	      6.28260978
      2.63000000	     -2.09791682	      1.97560827	    176.98813098	     -0.53798712	      1.00236302	     -0.17695000	      3.00038903	      6.06152027	     -1.29743673	    -26.13727679	     19.13220392	     -1.13467649	     20.16242387	     -2.20030213	     -2.48072418	    -13.80273772	      5.15474648	      2.78941173	    -16.64537554	      1.31959113	      6.38288909
      2.64000000	     -1.99929179	      2.16540457	    177.01311097	     -0.53070655	      1.00256293	     -0.17778951	      3.57970749	      6.31364444	     -1.48633420	    -26.15641421	     18.82086755	     -1.21080364	     20.53478821	     -2.58623146	     -3.45180651	    -14.01662536	      5.31273814	      2.68127927	    -16.66682688	      1.54338751	      6.46160788
